# Blender v2.79 (sub 0) OBJ File: ''
# www.blender.org
mtllib untitled.mtl
o Cube
v -1.957166 1.957166 3.930897
v -1.957166 1.957166 -3.930897
v 1.957167 1.957166 -3.930896
v 1.957166 1.957166 3.930899
v -1.957167 -1.957166 3.930895
v -1.957165 -1.957166 -3.930899
v 1.957167 -1.957166 -3.930896
v 1.957166 -1.957166 3.930897
v -1.997309 1.242529 4.490524
v -1.997309 1.242529 -4.946972
v 2.701554 1.242529 4.490526
v 2.701555 1.242529 -4.946971
vn 0.6925 0.7214 0.0000
vn 0.0000 1.0000 -0.0000
vn 1.0000 0.0000 0.0000
vn -0.0000 -0.0000 1.0000
vn -1.0000 -0.0000 -0.0000
vn 0.0000 0.0000 -1.0000
vn 0.0000 -1.0000 0.0000
vn 0.0000 0.8179 -0.5753
vn -0.0000 0.6165 0.7873
vn -0.9984 0.0561 0.0000
usemtl Material
s off
f 3//1 4//1 11//1 12//1
f 5//2 8//2 7//2 6//2
f 1//3 5//3 6//3 2//3
f 2//4 6//4 7//4 3//4
f 3//5 7//5 8//5 4//5
f 5//6 1//6 4//6 8//6
f 9//7 10//7 12//7 11//7
f 2//8 3//8 12//8 10//8
f 4//9 1//9 9//9 11//9
f 1//10 2//10 10//10 9//10
